<svg width="446" height="316" viewBox="0 0 446 316" fill="none" xmlns="http://www.w3.org/2000/svg">
<line x1="106.066" y1="140.277" x2="133.762" y2="112.581" stroke="#797979"/>
<line x1="41.6182" y1="116.925" x2="69.3142" y2="144.621" stroke="#797979"/>
<line x1="171.22" y1="77.0548" x2="201.935" y2="46.3406" stroke="#797979"/>
<line x1="238.547" y1="270.586" x2="266.243" y2="242.89" stroke="#797979"/>
<line x1="303.701" y1="205.432" x2="331.397" y2="177.736" stroke="#797979"/>
<line x1="368.856" y1="140.277" x2="396.552" y2="112.581" stroke="#797979"/>
<line x1="169.049" y1="207.364" x2="199.763" y2="176.65" stroke="#797979"/>
<line x1="171.928" y1="245.062" x2="199.624" y2="272.758" stroke="#797979"/>
<line x1="106.773" y1="180.994" x2="134.469" y2="208.69" stroke="#797979"/>
<line x1="304.408" y1="110.409" x2="335.123" y2="141.124" stroke="#797979"/>
<line x1="235.996" y1="46.3406" x2="266.71" y2="77.0548" stroke="#797979"/>
<rect x="192.206" y="261.704" width="54.2955" height="54.2955" rx="27.1478" fill="#96E996"/>
<rect x="258.447" y="197.636" width="54.2955" height="54.2955" rx="27.1478" fill="#96E996"/>
<rect x="324.687" y="133.567" width="54.2955" height="54.2955" rx="27.1478" fill="#96E996"/>
<rect x="390.928" y="69.4983" width="54.2955" height="54.2955" rx="27.1478" fill="#96E996"/>
<rect x="180.261" y="254.103" width="54.2955" height="54.2955" rx="27.1478" transform="rotate(-180 180.261 254.103)" fill="#96E996"/>
<rect x="246.502" y="187.863" width="54.2955" height="54.2955" rx="27.1478" transform="rotate(-180 246.502 187.863)" fill="#B5DDB5"/>
<rect x="246.502" y="54.2955" width="54.2955" height="54.2955" rx="27.1478" transform="rotate(-180 246.502 54.2955)" fill="#B5DDB5"/>
<rect x="312.742" y="121.622" width="54.2955" height="54.2955" rx="27.1478" transform="rotate(-180 312.742 121.622)" fill="#96E996"/>
<rect x="180.261" y="121.622" width="54.2955" height="54.2955" rx="27.1478" transform="rotate(-180 180.261 121.622)" fill="#B5DDB5"/>
<rect x="116.192" y="187.863" width="54.2955" height="54.2955" rx="27.1478" transform="rotate(-180 116.192 187.863)" fill="#B5DDB5"/>
<rect x="54.2954" y="123.794" width="54.2955" height="54.2955" rx="27.1478" transform="rotate(-180 54.2954 123.794)" fill="#B5DDB5"/>
</svg>
