<svg width="747" height="119" viewBox="0 0 747 119" fill="none" xmlns="http://www.w3.org/2000/svg">
<path d="M235.023 44.1136C234.795 41.6136 233.784 39.6705 231.989 38.2841C230.216 36.875 227.682 36.1705 224.386 36.1705C222.205 36.1705 220.386 36.4545 218.932 37.0227C217.477 37.5909 216.386 38.375 215.659 39.375C214.932 40.3523 214.557 41.4773 214.534 42.75C214.489 43.7955 214.693 44.7159 215.148 45.5114C215.625 46.3068 216.307 47.0114 217.193 47.625C218.102 48.2159 219.193 48.7386 220.466 49.1932C221.739 49.6477 223.17 50.0455 224.761 50.3864L230.761 51.75C234.216 52.5 237.261 53.5 239.898 54.75C242.557 56 244.784 57.4886 246.58 59.2159C248.398 60.9432 249.773 62.9318 250.705 65.1818C251.636 67.4318 252.114 69.9545 252.136 72.75C252.114 77.1591 251 80.9432 248.795 84.1023C246.591 87.2614 243.42 89.6818 239.284 91.3636C235.17 93.0455 230.205 93.8864 224.386 93.8864C218.545 93.8864 213.455 93.0114 209.114 91.2614C204.773 89.5114 201.398 86.8523 198.989 83.2841C196.58 79.7159 195.341 75.2045 195.273 69.75H211.432C211.568 72 212.17 73.875 213.239 75.375C214.307 76.875 215.773 78.0114 217.636 78.7841C219.523 79.5568 221.705 79.9432 224.182 79.9432C226.455 79.9432 228.386 79.6364 229.977 79.0227C231.591 78.4091 232.83 77.5568 233.693 76.4659C234.557 75.375 235 74.125 235.023 72.7159C235 71.3977 234.591 70.2727 233.795 69.3409C233 68.3864 231.773 67.5682 230.114 66.8864C228.477 66.1818 226.386 65.5341 223.841 64.9432L216.545 63.2386C210.5 61.8523 205.739 59.6136 202.261 56.5227C198.784 53.4091 197.057 49.2045 197.08 43.9091C197.057 39.5909 198.216 35.8068 200.557 32.5568C202.898 29.3068 206.136 26.7727 210.273 24.9545C214.409 23.1364 219.125 22.2273 224.42 22.2273C229.83 22.2273 234.523 23.1477 238.5 24.9886C242.5 26.8068 245.602 29.3636 247.807 32.6591C250.011 35.9545 251.136 39.7727 251.182 44.1136H235.023ZM275.693 79.2614L275.761 59.3864H278.08L292.807 40.6364H311.693L289.807 67.5H285.409L275.693 79.2614ZM260.659 93V23.1818H277.33V93H260.659ZM293.182 93L279.477 71.25L290.455 59.4205L312.443 93H293.182ZM317.659 93V40.6364H334.33V93H317.659ZM326.011 34.5341C323.67 34.5341 321.659 33.7614 319.977 32.2159C318.295 30.6477 317.455 28.7614 317.455 26.5568C317.455 24.375 318.295 22.5114 319.977 20.9659C321.659 19.3977 323.67 18.6136 326.011 18.6136C328.375 18.6136 330.386 19.3977 332.045 20.9659C333.727 22.5114 334.568 24.375 334.568 26.5568C334.568 28.7614 333.727 30.6477 332.045 32.2159C330.386 33.7614 328.375 34.5341 326.011 34.5341ZM361.611 23.1818V93H344.94V23.1818H361.611ZM388.892 23.1818V93H372.222V23.1818H388.892ZM429.06 40.6364V52.9091H396.026V40.6364H429.06ZM402.946 28.0909H419.616V76.5341C419.616 77.5568 419.776 78.3864 420.094 79.0227C420.435 79.6364 420.923 80.0795 421.56 80.3523C422.196 80.6023 422.957 80.7273 423.844 80.7273C424.48 80.7273 425.151 80.6705 425.855 80.5568C426.582 80.4205 427.128 80.3068 427.491 80.2159L430.014 92.25C429.219 92.4773 428.094 92.7614 426.639 93.1023C425.207 93.4432 423.491 93.6591 421.491 93.75C417.582 93.9318 414.23 93.4773 411.435 92.3864C408.662 91.2727 406.537 89.5455 405.06 87.2045C403.605 84.8636 402.901 81.9205 402.946 78.375V28.0909ZM437.565 93V40.6364H453.759V50.1818H454.304C455.259 46.7273 456.815 44.1591 458.974 42.4773C461.134 40.7727 463.645 39.9205 466.509 39.9205C467.281 39.9205 468.077 39.9773 468.895 40.0909C469.713 40.1818 470.474 40.3295 471.179 40.5341V55.0227C470.384 54.75 469.338 54.5341 468.043 54.375C466.77 54.2159 465.634 54.1364 464.634 54.1364C462.656 54.1364 460.872 54.5795 459.281 55.4659C457.713 56.3295 456.474 57.5455 455.565 59.1136C454.679 60.6591 454.236 62.4773 454.236 64.5682V93H437.565ZM499.73 93.9886C494.253 93.9886 489.526 92.9091 485.548 90.75C481.594 88.5682 478.548 85.4659 476.412 81.4432C474.298 77.3977 473.241 72.5909 473.241 67.0227C473.241 61.6136 474.31 56.8864 476.446 52.8409C478.582 48.7727 481.594 45.6136 485.48 43.3636C489.366 41.0909 493.946 39.9545 499.219 39.9545C502.946 39.9545 506.355 40.5341 509.446 41.6932C512.537 42.8523 515.207 44.5682 517.457 46.8409C519.707 49.1136 521.457 51.9205 522.707 55.2614C523.957 58.5795 524.582 62.3864 524.582 66.6818V70.8409H479.071V61.1591H509.071C509.048 59.3864 508.628 57.8068 507.81 56.4205C506.991 55.0341 505.866 53.9545 504.435 53.1818C503.026 52.3864 501.401 51.9886 499.56 51.9886C497.696 51.9886 496.026 52.4091 494.548 53.25C493.071 54.0682 491.901 55.1932 491.037 56.625C490.173 58.0341 489.719 59.6364 489.673 61.4318V71.2841C489.673 73.4205 490.094 75.2955 490.935 76.9091C491.776 78.5 492.969 79.7386 494.514 80.625C496.06 81.5114 497.901 81.9545 500.037 81.9545C501.514 81.9545 502.855 81.75 504.06 81.3409C505.264 80.9318 506.298 80.3295 507.162 79.5341C508.026 78.7386 508.673 77.7614 509.105 76.6023L524.412 77.0455C523.776 80.4773 522.378 83.4659 520.219 86.0114C518.082 88.5341 515.276 90.5 511.798 91.9091C508.321 93.2955 504.298 93.9886 499.73 93.9886ZM557.574 93.9886C552.097 93.9886 547.369 92.9091 543.392 90.75C539.438 88.5682 536.392 85.4659 534.256 81.4432C532.142 77.3977 531.085 72.5909 531.085 67.0227C531.085 61.6136 532.153 56.8864 534.29 52.8409C536.426 48.7727 539.438 45.6136 543.324 43.3636C547.21 41.0909 551.79 39.9545 557.062 39.9545C560.79 39.9545 564.199 40.5341 567.29 41.6932C570.381 42.8523 573.051 44.5682 575.301 46.8409C577.551 49.1136 579.301 51.9205 580.551 55.2614C581.801 58.5795 582.426 62.3864 582.426 66.6818V70.8409H536.915V61.1591H566.915C566.892 59.3864 566.472 57.8068 565.653 56.4205C564.835 55.0341 563.71 53.9545 562.278 53.1818C560.869 52.3864 559.244 51.9886 557.403 51.9886C555.54 51.9886 553.869 52.4091 552.392 53.25C550.915 54.0682 549.744 55.1932 548.881 56.625C548.017 58.0341 547.563 59.6364 547.517 61.4318V71.2841C547.517 73.4205 547.938 75.2955 548.778 76.9091C549.619 78.5 550.812 79.7386 552.358 80.625C553.903 81.5114 555.744 81.9545 557.881 81.9545C559.358 81.9545 560.699 81.75 561.903 81.3409C563.108 80.9318 564.142 80.3295 565.006 79.5341C565.869 78.7386 566.517 77.7614 566.949 76.6023L582.256 77.0455C581.619 80.4773 580.222 83.4659 578.062 86.0114C575.926 88.5341 573.119 90.5 569.642 91.9091C566.165 93.2955 562.142 93.9886 557.574 93.9886ZM591.077 93V83.4886L615.349 53.9318V53.5909H591.929V40.6364H635.224V51.0682L612.724 79.7045V80.0455H636.043V93H591.077Z" fill="#000227"/>
<rect y="6" width="40" height="103" fill="#000227"/>
<rect x="49" y="6" width="40" height="103" fill="#000227"/>
<rect x="98" y="6" width="40" height="103" fill="#000227"/>
</svg>
